/* XPM */
static char *fb7774c3234d4fb8c489e5b0ac108459eW4DabvvqteDfAjp[] = {
/* columns rows colors chars-per-pixel */
"64 64 247 2 ",
"   c None",
".  c #030403",
"X  c #0E1417",
"o  c #181718",
"O  c #281A2B",
"+  c #1C2B34",
"@  c #2B2B2B",
"#  c #222222",
"$  c #342A2D",
"%  c #3A3639",
"&  c #2A2E39",
"*  c #45373A",
"=  c #16354A",
"-  c #19364F",
";  c #27354B",
":  c #2C3E67",
">  c #473946",
",  c #4F3849",
"<  c #1B4358",
"1  c #284755",
"2  c #354B56",
"3  c #2C5A6E",
"4  c #2D5263",
"5  c #285879",
"6  c #354F69",
"7  c #29647E",
"8  c #32617D",
"9  c #474548",
"0  c #554648",
"q  c #5A4B54",
"w  c #5D5B5C",
"e  c #575355",
"r  c #484C59",
"t  c #65585C",
"y  c #6A4E54",
"u  c #50546B",
"i  c #685D65",
"p  c #646364",
"a  c #6A6768",
"s  c #74676D",
"d  c #757475",
"f  c #7C777A",
"g  c #726E73",
"h  c #597079",
"j  c #84777B",
"k  c #836674",
"l  c #A9797A",
"z  c #885D6B",
"x  c #2C3F94",
"c  c #254985",
"v  c #2E5E85",
"b  c #305895",
"n  c #1C6E92",
"m  c #2B6781",
"M  c #3A648D",
"N  c #376886",
"B  c #2B7A9C",
"V  c #34758F",
"C  c #346CB1",
"Z  c #2363A5",
"A  c #5D7285",
"S  c #466C95",
"D  c #4A7697",
"F  c #587998",
"G  c #426F89",
"H  c #777286",
"J  c #4776A6",
"K  c #526EA4",
"L  c #4A5D8A",
"P  c #897A82",
"I  c #947283",
"U  c #2C82A3",
"Y  c #2982A8",
"T  c #3287A8",
"R  c #2C8BB7",
"E  c #2C90BC",
"W  c #3881BF",
"Q  c #2980A5",
"!  c #498198",
"~  c #51839C",
"^  c #5B879C",
"/  c #67899A",
"(  c #6D8D99",
")  c #5C89A3",
"_  c #4898BA",
"`  c #5191B7",
"'  c #628DA5",
"]  c #668AA7",
"[  c #6993AB",
"{  c #6A94A5",
"}  c #749BAB",
"|  c #769AA8",
" . c #6994B3",
".. c #799CBA",
"X. c #769AB6",
"o. c #7D8CB4",
"O. c #7CA2AC",
"+. c #77A0A9",
"@. c #7CA3B6",
"#. c #6EA2BA",
"$. c #5FA1B5",
"%. c #489BC6",
"&. c #5294C6",
"*. c #769EC2",
"=. c #639FCB",
"-. c #4BA2CC",
";. c #55A5CC",
":. c #5CADD2",
">. c #56B1D6",
",. c #67A6CB",
"<. c #79A8C7",
"1. c #68B6D6",
"2. c #77BAD9",
"3. c #63AED1",
"4. c #7AC4DC",
"5. c #878688",
"6. c #96848B",
"7. c #9C8E99",
"8. c #9B9C9C",
"9. c #999597",
"0. c #8C9494",
"q. c #A48998",
"w. c #A29A9C",
"e. c #AF8F94",
"r. c #8996AB",
"t. c #A59CA3",
"y. c #BC9CAA",
"u. c #A584A3",
"i. c #83A6AF",
"p. c #83A4B4",
"a. c #84A9B3",
"s. c #8BABB4",
"d. c #83A4BA",
"f. c #8BACBA",
"g. c #87A8B9",
"h. c #92ADBB",
"j. c #9DADB8",
"k. c #8EB1BC",
"l. c #94B3BC",
"z. c #9AB5BD",
"x. c #97B7BB",
"c. c #9DA4A4",
"v. c #ABA7A9",
"b. c #B6A6AC",
"n. c #B6ACB5",
"m. c #B6B7B7",
"M. c #ADB0B0",
"N. c #C5AAB3",
"B. c #CCB4BB",
"V. c #D1A4B8",
"C. c #EFB1B7",
"Z. c #C895A4",
"A. c #C0C1BF",
"S. c #9BB6C0",
"D. c #89B5CC",
"F. c #A2BBC3",
"G. c #AABFC4",
"H. c #A7BBC8",
"J. c #B2B9C7",
"K. c #C9B9C5",
"L. c #D7B7C7",
"P. c #E8A8C3",
"I. c #E6B8CB",
"U. c #F4B8C7",
"Y. c #85C5DA",
"T. c #98CBD9",
"R. c #ABC3C5",
"E. c #AAC2C6",
"W. c #B3C5CA",
"Q. c #B5C9C9",
"!. c #BBCCCB",
"~. c #B5C6C8",
"^. c #BBCCD2",
"/. c #B3C7D1",
"(. c #ABCDD4",
"). c #89C6E2",
"_. c #9ACEE5",
"`. c #9AD2EA",
"'. c #97D1E5",
"]. c #87D5E6",
"[. c #ABDCEE",
"{. c #A5D7EA",
"}. c #B3DFF2",
"|. c #B5DBEC",
" X c #B5E2F3",
".X c #BBE5F3",
"XX c #B4E6EA",
"oX c #C1CFCE",
"OX c #CCCBCC",
"+X c #C7C4C8",
"@X c #D9C6C9",
"#X c #C3CED2",
"$X c #D9CCD6",
"%X c #C5D1D3",
"&X c #CBD4D4",
"*X c #C9D8DC",
"=X c #D3D4D5",
"-X c #D5D9D9",
";X c #DCDCDD",
":X c #D6D6D9",
">X c #C3D1CF",
",X c #F4C7CF",
"<X c #E9C8D7",
"1X c #F5C9D9",
"2X c #E1DCDE",
"3X c #E8D4DC",
"4X c #F6D9DC",
"5X c #EDCACC",
"6X c #E2E0DF",
"7X c #D5DEE4",
"8X c #E9D9E3",
"9X c #FBDBEB",
"0X c #F7D8E5",
"qX c #FACDE4",
"wX c #DAE4E7",
"eX c #C2E7F4",
"rX c #C4E9FA",
"tX c #CCEDFD",
"yX c #C8EAF5",
"uX c #D1EFFA",
"iX c #D5F1FC",
"pX c #DDF6FA",
"aX c #D6F3F8",
"sX c #C7ECED",
"dX c #E3E2E1",
"fX c #ECE4E5",
"gX c #E4EAEC",
"hX c #EDECEC",
"jX c #EDE6E9",
"kX c #F3E5EB",
"lX c #FBE4EC",
"zX c #F5EBEC",
"xX c #FCECED",
"cX c #F8E3E5",
"vX c #FDE4F1",
"bX c #FBECF3",
"nX c #F4EDF1",
"mX c #E5F9FC",
"MX c #ECFDFD",
"NX c #E7F4F7",
"BX c #F4F3F3",
"VX c #FCF4F5",
"CX c #FCF5F9",
"ZX c #F4FDFD",
"AX c #FEFEFE",
"SX c #F6F8F6",
"DX c #EBF0EF",
/* pixels */
"                                                                                                                                ",
"                                                          m m m m m 8                                                           ",
"                                                    N D ^ ' ~ ! ! ~ ~ V m                                                       ",
"                                              ' | g.g.x.x.l.g.{ ' ..@.} { ) N 5                                                 ",
"                                          | +.x.!.>X~.E.s.+.@.@.[ } i.X.g.@.#.) N 8                                             ",
"                                        a.x.Q.&X!.E.R.!.~.x.+.{ @.i.| ' [ f.l.d.X.} N                                           ",
"                                      l.~.!.!.!.E.!.oX&X!.R.x.x.R.~.W.D.X...S.H.d.d.| 8                                         ",
"                                    h.Q.&X>X!.Q.Q.!.&X>X!.Q.Q.Q.E.R.Q.^.W.d.@.F.G.d.g.{ N                                       ",
"                                  p.W.dX=X!.!.!.oX-X;XoX!.oXoX!.Q.R.Q.oX-XQ.d.g.R.E.d.@.{ N                                     ",
"                                  s.7XxXdX&X&X&X-X6X2X>XoX&X!.!.>X!.!.!.&X-XW.g.l.R.S...f.^                                     ",
"                                ( R.xXbXxXfX;X=X6XfX6X-X-X&X!.Q.&X&X!.!.!.&X*XS.f.l.f.d... .M                                   ",
"                                O.;XxXxXxXfX&X2XxXxXzXzXfX;XoXF.~.&X-X&X!.R.&X%XS.d.f.f.@...D 5                                 ",
"                                a.2XxXxXfX-XoXkXxXxXxXxXdX;XE.p.z.-XxXfX;X!.!.-XW.g.l.f.f.@. .M                                 ",
"                              { G.;X;XxXfXQ.=XzXzXxXxXzX;X-Xf.f.@.!.xXxXzX-XR.^.%Xx.@.k.g.d...S                                 ",
"                              | !.-X!.dX6XQ.-XfX6XfXfXfX-X!.O.*XW.J.hXlXzXdXoXQ.-XR.+.x.d.D.X.) 5                               ",
"                              { !.%XS.&X>Xz.%X=X&X;X-X-X^.J.^.ZXwXH.-X7XdX6X&Xm.-X&Xi.a.f.k.X.X.M                               ",
"                              } !.!.i.>X!.i.~.#XF.^.%X^.h.H.7XAX7Xh.!.%X&XoX^.S.&X-Xk.O.x.k.X.X.M                               ",
"                              | Q.!.s.E.%Xl.z.W.s.l.F.z.' h.7XAX*XO.h.G.Q.S.E.S.>X-Xl.+.x.f.] X.M                               ",
"                              { R.R.a.z.O.| z.s.^ { | | p.^ s.DXgXs.f.l.i.^ O.g.E.-Xl.{ S.@.[ X.M                               ",
"                              | R.E.} wX%X^.hX*X^.%X*X*XgX^.%XNXAXwXwXwX*X^.s.^ f.&Xl.{ D.O.] X.M                               ",
"                              | z.| ^.8X8X2X6XDXAXAXAXAXAXAXAXBXdX;XdXjXBXSXgXp.d.%Xg.[ @.' '  .v                               ",
"                                O.] +X$Xn.q.v.@XzXAXAXAXAXVXxX5Xb.9.v.B.$X2XzXhXS.E.} | A L ) ' v                               ",
"                              ; H ] $X9XqX4X4XcXxXVXVXVXxXlX4X4X4X4X0XcXlXxXVXzX~.z.r.V.> = u 6 6                               ",
"                            q 7.K.| K.L.1X1XC.C.,XcXxXxXcX1XC.Z.C.U.1X4X0X9XlXkXG.o.r.I.n.t.7.u.u O                             ",
"                        O b.$XCXVXs.J.I q % 0 l C.cXxXxX0XU.C.l y % % > a 6.L.3Xs.] :XnXCXCXCXCX$XJ.,                           ",
"                        > DXAXkX1XL.A > @ @ o $ e.cXxXxXcX5Xe.* @ . . o % @ $ f ] d.nX0XP.U.1X9XCX+XP                           ",
"                          6.n.BXbX<X/ !.9.d @ o f VXVXVXVX3X7.9 t . @ p OXt.> % ( 8XI.P.U.9XbX#X7.,                             ",
"                            , n.SXnXj.M.M.a a g w.AXAXAXAXVXzXj p e 5.5.hXzXv.( J.0X1XvXCXbXK.s                                 ",
"                                s K.n.i 8Xv.w.v.2XAXAXAXAXAXCX=X8.7.t.OXVXcX2X$X0XxXJ.J.:XH u <                                 ",
"                                  r 6 p bX3X<X8XAXAXAXAXAXAXAXAX8XI.C.1XcXxXxX@XB.q.F ) u A F D M                               ",
"                                  ] c.d :XAXAXAXAXAXAXAXAXAXAXAXAXCXxXlXxXlXL.d % ; G 4.J.H.[ [ ~ m                             ",
"                                  H.eX@.h K.VXCXAXAX4X@XcXAXCXVXCXbXxXlX<Xj j =X*X! Y.[.7XQ.} | [ F 5                           ",
"                                o.*X2.<.L p a :XxXVXcX,XcXVXxXxX4X8X3Xf t v.:XDXD.X...*.,.(.S.d.p.' D                           ",
"                                *.D.C &.x S u r 5.A.5XA.@X@X@XB.t % 9 8.OXAXAXr.*.S C C b ;.K S.d.F J                           ",
"                                J `.].>.=.&.b N r e w % * * w a w.* * 8.=XAXAXo.,.{.4.%.,.W K D.g.V D                           ",
"                                c C *.;.Z b J N 7 x.v.d f m.BXBXxX4X5Xj @ 5.J.  b &.<.%.Z b D.F [ L D                           ",
"                                  b  .D.K v S S = r 9.m.a AXAXSXDXzXt.d 9.p       F D.` c F [ M G                               ",
"                                                  d dX6.p ZXhXd e e 0.+XSXv.    dX~.(.                                          ",
"                                                  7.B.q.p 8Xj 8.+XOXjX8XN.L.6.t.                                                ",
"                                                  6.V.B.f 5.y.y.BXAXkXB.1X9X4Xw                                                 ",
"                                                  8.lXVXb.t.AX@X+XkX<XqX9XvXvXq.                                                ",
"                                                p $XCXAXkX3XAXhXy.5XnX9XqXbXbX<X%                                               ",
"                                                0.0XbXAXCXAXAXAXjXBXAX9XqXCXCX3Xq                                               ",
"                                              f hX<X0XAXAXAXAXAXAXAXjX<XbXAXAXvXN.o                                             ",
"                                            H hXbX<XbXAXAXAXAXAXAXAXB.3XAXAXAXbXI.i                                             ",
"                                          # +XAXL.$XAXAXAXCXBX2X5.d j 3XAXAXAXCXvXy.O                                           ",
"                                          P fX;XN.@XAXnX;X8.w a v.m.P $XAXAXAXAXvXqXk X +                                       ",
"                                          9.b.e f SX@Xq.p 8.;XwXmXiXt.t.m.m.2XAXvX9XI h @.r &                                   ",
"                                          d t p f OXg d wXSXZXmXtXsXwX0 0 t P n.0XqXl / .X_.{ 2                                 ",
"                                            * $ * 5.&XMXAXMXtXeXeXpXSX8.f g t , s k g H.tX.X|._.^                               ",
"                                              w c.-XAXZXZXpXeXuXNXAXAXNX0.@ y z , % ~.mXuXtXrX.X_./                             ",
"                                            w %XZXAXAXZXZXMXmXZXAXAXZXZXNXr.9 > i %XmXiXuXtXtXtXXX_.F                           ",
"                                          r !.ZXZXAXAXAXAXAXAXAXAXAXMXMXpXtX|.*X7XpXtXrX.XrXtXrX}.{.).F &                       ",
"                                        w z.aXpXmXZXZXZXAXAXAXAXZXZXMXpXtXtXuXuXtXtXtX X`.[..X X[.[.`.2.6                       ",
"                                      5.!.pX.X.XuXpXmXMXZXZXZXZXMXmXpXtXtXrX.XrXtXtXrX`.2.)._.[.[.{.).2.~ +                     ",
"                                    % a.T.'.sXaX X.XiXiXiXiXiXiXiXiXtXtXrX X[..XtX.X'.:.%.%.2.Y.Y.4.2.>.;.1                     ",
"                                      + < V D.aXsX.X|.{.}.}..XrXrXrXrX X[.`.[. X'.2.-.%.;.:.;.:.3.3.>.1.1.$.1                   ",
"                                          < U 3.T.pX*X{.[.).].'.`.).).4.4.1.1.2.1.3.3.Y n _ %.%.%.-.>.;.;.-.! X                 ",
"                                            4 T T $.{.aXiX}.{.{.[.`.`.'.'.'.).Y.[.{.~ = < n R %.%.%.B - = < 1                   ",
"                                              ; 5 B T $.` Y.[.[.[.[.[.[.[. XrXtX[.@.1     = - = = = =                           ",
"                                                  + 7 U Y Y Y U U U U U Y _ ).[.`.) X                                           ",
"                                                      + N N 7 Y E E E E E n 8 ,.1.! X                                           ",
"                                                              4 3 3 3 3 3 4   4 3 4                                             ",
"                                                                                                                                "
};
