/* XPM */
static char *result[] = {
/* columns rows colors chars-per-pixel */
"64 64 4 1 ",
"  c #8C6D4D",
". c #9E7C59",
"X c #B08A63",
"o c #C2986D",
/* pixels */
"oooooX.XoX.XoooooX.XoX.XooooXX.ooooooX.XoX.XoooooX.XoX.XooooXX.X",
"oooooX.XXXX.XooXX..XoX.XXooXXoX.XooooX.XXXX.XooXX..XoX.XXooXXooo",
"XoXXX.X......XX....XXX.XooXoooX.XXXXX.X......XX....XXX.XooXooooo",
"Xoo..XoXXX.XX..XX.......XoooooX......XoXXX.XX..XX.......XoooXooo",
"oXooX.oooX.ooX.oo.XXXXXX.XooXX...XXXX.oooX.ooX.oo.XXXXXX.Xo.Xooo",
"oooX..XoX.Xooo.o.XoooooX..XX.....XooX.XoX.Xooo.o.XoooooX..X.Xooo",
"XoX....X..XooX...XoooooX.X.....XX.X....X..XooX...XoooooX...X.XXX",
"XX.XXX....XXX.XX.Xooooo.XoXX..XooX.XXXX...XXX.XX.Xooooo..XooX.. ",
"...XoooX......oX.XXoooX.oooX.XoooX.oooX.......oX.XXoooX.XooX.XXX",
"XX.XooooXXXXX.XX...XXXX.XoX.XooooX.oooo.XXXXX.XX...XXX...XoX.XoX",
"oX.XooooX.ooX....XX......XX.XooXX.XoooX.XoooX....XX..X....XX.XXX",
"XX.XooooX.XX....XooX..XXX....XX...XXXXX...XX....XooXoX.XXX...X. ",
"...XoooX.Xoo....XooX.XooX...X..XX......XXX......XooXoX.XoooX..XX",
"....XXXX.XooXXXX.XX..ooooX.Xo.XooXXXX.XooX..XXXX.X..XX.XoooX.Xoo",
"X.Xo......XX..oX...X.Xoooo.Xo.ooooooX.XooX..XooX.X......XoX.Xooo",
"X.Xoo.XXX...XXooX.XoX.Xooo.oo.Xoooooo.XoXX.XoooooX...XoX....Xooo",
"oX....XoX...XoooX.XoX.Xooo.oo.Xoooooo.XoXX.XooooXX...XXX.ooX.Xoo",
"oX.XoX......XooX...X.Xoooo.Xo.ooooooX.XooX..XooX..XX......oX.Xoo",
"X.XoooX.XX..XXoX.XX..ooooX.Xo.XooXXXX.XooX..XXX..XooX.XXXX....XX",
"..XoooX.XoX...X.XooX.XooX...X..XX......XXX.....X.XooX.XoooX.... ",
"X...XXX.XoX.....XooX..XXX....XX...XXXXX...XX...oX.XX.XooooX.XXXX",
"X.XX....Xo.XXXX..XX......XX.XooXX.XoooX.XoooX..X.....XooooX.XooX",
"X.XoX...XX.XooXX...XXXX.XoX.XooooX.oooo.XXXXX.X.XoX..XooooX.XXXX",
"X.XooX.....XoooX.XXoooX.oooX.XoooX.oooX.......oXoooX.XXoooX.... ",
".XooX.XXoXX.XXXX.Xooooo.XoXX..XooX.XXXX...XXX.XooooX....XXX.XXXX",
"X.X...XoooX......XoooooX.X.....XX.X....X..XooX.oooXX.XoX...XoXoX",
"oX.XX.XoooX.XXoo.XoooooX..XX.....XooX.XoX.Xooo.ooX..XoooX.Xooooo",
"oX.Xo.XoooX.Xoooo.XXXXXX.XooXX...XXXX.oooX.ooX......XXoX.XooXooo",
"oX.XoX...XX.XooXX.......XoooooX......XoXXX.XX..oXX....XX.XoooXoo",
"oX.XX.XXX...Xoo....XXX.XooXoooX.XXXXX.X......XXoooX.XX....XooXXX",
"XX...XoooX.XoooXX..XoX.XXooXXoX.XooooX.XXXX.Xoo....XooX...XoooX ",
".....XoooX.XoooooX.XoX.XooooXX.ooooooX.XoX.XoooXoX.XoooX...XXX.X",
"XXX...XoooX.XoXooX.XXX.XXoooX.XXoooooX.XXX.XooooooX.XoooX.....oX",
"oooX...XooX....oX.....X.XXoXX...XooooX.....XooooooX.XoooX...XXoo",
"XooX....XX.XoooX.XX.XXoX.XXXX.XX.XXXX.XoooX.XXXooX...XXX.XX.Xooo",
"XoooX.XX....XXo.XoX.XoooX.XX.XooX.....XXXXX....ooX.XX...XoX.Xooo",
"oXooX.XoXX......XX.XoooooX..XoooX...........XXXooX.XoooX.oX.Xooo",
"oooX.XoooX..Xoo....XooooXX.XoooooX..XXXXX.XXooXoXX.XoooX.XX.Xooo",
"XoX...XoX.XXoooXXXX.XoXX...XoooooX.XooooX.Xooo.....XoooX...X.XXX",
"XX.XXX....XooooXoooX.X..XXX.XoooooX.XooooX.Xoo.XXX.XXoXX.XooX.. ",
"...XoooXX.XoooXoooooX.XXoooX.XooooX..XooX.X.XX.oooX.....XooX.XXX",
"XX.XooooX..XoX.Xooooo.XoooooX.XXXX.XX.XX.XoX...XooX.XX...XoX.XoX",
"oX.XooooX.....X.XoXXX.oooooo......XooX..XoooX..XXXX.oX....XX.XXX",
"XX.XooooX.XX.Xo.XX....XooooX.XXXX.Xooo.XooooX......XoX.XXX...X. ",
"...XoooX.XooX.X.X.XXXX.XXXX..XooX.oooo.oooooX..X...XoX.XoooX..XX",
"....XXXX.XooX..o.XoooX........XX..XXoX.XooooX.XoXX..XX.XoooX.Xoo",
"X.Xo......XX..Xo.oooooX.XX.XXX..XX..X...XXXX.XoooX......XoX.Xooo",
"X.Xoo.XXX...XXoo.XoooX.XoX.ooo.Xoooo...X....XooooX...XoX....Xooo",
"oX....XoX...XoooooX.XXoX.ooooooX.oo.oooX.XoX.XooXX...XXX.ooX.Xoo",
"oX.XoX......XoXooX..XooX.Xoooooo.oX.ooooX.X...Xoo.XX......oX.Xoo",
"X.XoooX.XX..X.XXXX..XooX.XXXXooX.oX.Xoooo..XX.XXXXooX.XXXX....XX",
"..XoooX.XoX.oX......XXX......XX..X...XooX.XooX.....oX.XoooX.... ",
"X...XXX.XoXooX....XX...XXXXX...XX....XXX..XooX....XX.XooooX.XXXX",
"X.XX....Xo.XX....XoooX.XoooX.XXooX.XX......XX....XoooXooooX.XooX",
"X.XoX...XXX...XX.XXXXX.oooo.XooooX.XoX.XXXX...XX.XXXXXooooX.XXXX",
"X.XooX..oooXX.Xo.......Xooo.XoooX.Xooo.XoooXX.Xo.......oooX.... ",
".XooX.XoooooX.XX.XXX...XXXX.XooX..XXoX.oooooX.XX.XXX...XXXX.XXXX",
"X.X...XoooooX...XooX..X....X.XX.....X.XoooooX...XooX..X....XoXoX",
"oX.XX.XoooooX.o.oooX.XoX.XooX.....XX..XoooooX.o.oooX.XoX.XXooooo",
"oX.XX.XXXXXX.oo.Xoo.Xooo.XXXX...XXooX.XXXXXX.oo.Xoo.Xooo.XXoXooo",
"oX.ooX.......XX..XX.XXXoX......XoooooX.......XX..XX.XXXoX...oXoo",
"oXoXooX.XXX....XX......X.XXXXX.XoooXooX.XXX....XX......X.XXXXXXX",
"XXXooXX.XoX..XXooX.XXXX.XooooX.XoXXooXX.XoX..XXooX.XXXX.XooooXX ",
"XXooooX.XoX.XoooooX.XoX.Xoooooo.XXooooX.XoX.XoooooX.XoX.XooooooX"
};
